<svg xmlns="http://www.w3.org/2000/svg" 
width="485.577" 
        height="300"
        viewBox="0 0 485.577 541.452">
  <g id="Group_225" data-name="Group 225" transform="translate(-98.981 -2)">
    <path id="Path_92" data-name="Path 92" d="M610.237,451.231a10.5,10.5,0,0,0-10.191-12.456l-21.613-62.793L566.47,391.231,589.321,449.9a10.552,10.552,0,0,0,20.915,1.327Z" transform="translate(-241.165 -177.719)" fill="#ffb8b8"/>
    <path id="Path_93" data-name="Path 93" d="M515.231,299.624s-.672-22.73,19.654-9.709,64.582,135,64.582,135l-22.023,11.915-50-111.623Z" transform="translate(-241.165 -177.719)" fill="#0070ad"/>
    <path id="Path_94" data-name="Path 94" d="M334.034,511.488l-10.15,4.337-21.56-37.085,14.981-6.4Z" fill="#ffb6b6"/>
    <path id="Path_95" data-name="Path 95" d="M588.07,704.5l-7.279,3.11-4.236-6.317-.391,8.294-19.305,8.249a4.719,4.719,0,0,1-5.846-6.857l10.867-17.235-2.969-6.947,16.629-5.961Z" transform="translate(-241.165 -177.719)" fill="#003654"/>
    <path id="Path_96" data-name="Path 96" d="M174.924,524.067l-11.024-.539-3.169-42.779,16.272.8Z" fill="#ffb6b6"/>
    <path id="Path_97" data-name="Path 97" d="M420.975,721.171l-7.906-.386-1.046-7.533-3.979,7.288-20.969-1.025a4.719,4.719,0,0,1-2.258-8.723l17.31-10.746.369-7.546,17.562,1.912Z" transform="translate(-241.165 -177.719)" fill="#003654"/>
    <path id="Path_98" data-name="Path 98" d="M740.917,694.969a3.564,3.564,0,0,0,2.524-6.2l-.253-.969a9.575,9.575,0,0,1,17.748-.336c4.318,9.846,9.881,20.028,7.267,30.943,17.594-38.227,11.037-85.508-15.81-117.8-7.374-3.971-13.387-11.093-15.015-19.414,3.642,1.2,8.14-1.8,5.374-5.6-1.2-1.45-2.405-2.889-3.6-4.339,13.65-14.818,30.3,8.108,15.31,28.074a114.266,114.266,0,0,1,13.024,19.951,48.045,48.045,0,0,1,2.656-22.342c2.682-6.649,7.775-12.276,12.252-18.044,5.443-7.029,16.813-3.918,17.639,4.928-5.069,1.72-5.659,9.071.166,10.02-1.367,16.484-11.982,31.721-26.732,39.085a114.711,114.711,0,0,1,6.725,47.885c2.435-19.011,22.771-23.812,36.944-31.494a5.549,5.549,0,0,1,8.516,5.54,32.054,32.054,0,0,0-5.589,3.017,4.844,4.844,0,0,0,2.335,8.821c-7.011,17.839-25.461,29.95-44.529,30.064a117.932,117.932,0,0,1-7.7,23.2l-28.3.269c-.1-.313-.2-.637-.293-.951a32.152,32.152,0,0,0,7.826-.541c-7.008-8.139-12.407-12.274-8.483-23.767Z" transform="translate(-241.165 -177.719)" fill="#e3ecf0"/>
    <path id="Path_99" data-name="Path 99" d="M443.939,423.7s-22.419,61.1-22.781,67.935-6.756,93.3-12.118,98.321-21.756,82.908-9,89,53-4,53-4l14-92,4.756-70.484s14.479,165.976,40.739,165.488S570.8,667.476,570.8,667.476L534.039,566.959s.52-119-8-143S443.939,423.7,443.939,423.7Z" transform="translate(-241.165 -177.719)" fill="#00456b"/>
    <path id="Path_100" data-name="Path 100" d="M510.463,266.293l-30.024,2.75L475.6,283.891s-25.126,13.8-19.562,20.068-1.244,48.516-1.244,48.516l1.538,34.293s-1.652,23.759-6.595,29.233S431.863,434.9,441,428.477c32.039-22.517,88.039-3.518,88.039-3.518l-8-49s18.171-80.225,11-87-13.937-7.632-13.937-7.632Z" transform="translate(-241.165 -177.719)" fill="#0070ad"/>
    <path id="Path_101" data-name="Path 101" d="M352.7,421.721a10.5,10.5,0,0,0,7.9-14.022l50.639-42.962-18.555-5.6-46.351,42.618a10.552,10.552,0,0,0,6.367,19.967Z" transform="translate(-241.165 -177.719)" fill="#ffb8b8"/>
    <path id="Path_102" data-name="Path 102" d="M481.3,309.344s9.977-20.435-13.908-16.944-114.465,96.4-114.465,96.4l15.158,19.931,91.544-81.112Z" transform="translate(-241.165 -177.719)" fill="#6c63ff"/>
    <path id="Path_103" data-name="Path 103" d="M442.407,274.682,347.7,396.008a10.081,10.081,0,0,0,1.741,14.127c21.992,53.4,87.788,93,165.186,128.938a10.074,10.074,0,0,0,14.127-1.741l94.7-121.326a10.074,10.074,0,0,0-1.741-14.127C556.768,365.2,500.942,322.711,456.534,272.941a10.081,10.081,0,0,0-14.127,1.741Z" transform="translate(-241.165 -177.719)" fill="#cad9e0"/>
    <path id="Path_104" data-name="Path 104" d="M616.814,413.245l-28.826,36.93a107.913,107.913,0,0,1-151.023,18.612L356.18,405.73a5.733,5.733,0,0,1-1-8.037l91.511-117.238a5.733,5.733,0,0,1,8.039-.983C495.6,332.241,550.3,373.305,615.824,405.214a5.728,5.728,0,0,1,.99,8.031Z" transform="translate(-241.165 -177.719)" fill="#fff"/>
    <path id="Path_105" data-name="Path 105" d="M440.518,340.915l-18.773,24.051a3.051,3.051,0,1,1-4.81-3.755l18.773-24.051a3.051,3.051,0,1,1,4.81,3.755Z" transform="translate(-241.165 -177.719)" fill="#e3ecf0"/>
    <path id="Path_106" data-name="Path 106" d="M475.731,323.074,434.5,375.892a3.051,3.051,0,1,1-4.81-3.755l41.228-52.819a3.051,3.051,0,1,1,4.81,3.755Z" transform="translate(-241.165 -177.719)" fill="#e3ecf0"/>
    <circle id="Ellipse_51" data-name="Ellipse 51" cx="20.096" cy="20.096" r="20.096" transform="translate(144.155 193.264)" fill="#12abdb"/>
    <path id="Path_107" data-name="Path 107" d="M477.92,364.818l-50.636,64.871a3.071,3.071,0,0,1-4.81-3.755l50.636-64.871a3.071,3.071,0,0,1,4.81,3.755Z" transform="translate(-241.165 -177.719)" fill="#e3ecf0"/>
    <path id="Path_108" data-name="Path 108" d="M510.769,350.007l-70.676,90.544a3.071,3.071,0,0,1-4.81-3.755l70.676-90.544a3.071,3.071,0,0,1,4.81,3.755Z" transform="translate(-241.165 -177.719)" fill="#e3ecf0"/>
    <path id="Path_109" data-name="Path 109" d="M510.523,390.267l-50.636,64.871a3.071,3.071,0,0,1-4.81-3.755l50.636-64.871a3.071,3.071,0,0,1,4.81,3.755Z" transform="translate(-241.165 -177.719)" fill="#e3ecf0"/>
    <path id="Path_110" data-name="Path 110" d="M577.523,398.267l-50.636,64.871a3.071,3.071,0,0,1-4.81-3.755l50.636-64.871a3.071,3.071,0,0,1,4.81,3.755Z" transform="translate(-241.165 -177.719)" fill="#12abdb"/>
    <path id="Path_111" data-name="Path 111" d="M543.372,375.456,472.7,466a3.071,3.071,0,0,1-4.81-3.755L538.562,371.7a3.071,3.071,0,0,1,4.81,3.755Z" transform="translate(-241.165 -177.719)" fill="#e3ecf0"/>
    <g id="Group_229" data-name="Group 229" transform="translate(223.135 2)">
      <path id="Path_91" data-name="Path 91" d="M517.151,230.246c8.744,15.063-7.721,40.443,8.873,45.714l-1.367-1.367c-10.016-12.32,10.919-38.4.9-50.717a30.1,30.1,0,0,1-3.98-5.916" transform="translate(-517.008 -177.719)" fill="#2f2e41"/>
      <path id="Path_112" data-name="Path 112" d="M519.772,227.962a29.823,29.823,0,1,1-51.3-20.685l.143-.143c.239-.251.477-.5.728-.74a.012.012,0,0,0,.012-.012c.31-.286.62-.573.942-.847a29.815,29.815,0,0,1,49.47,22.427Z" transform="translate(-451.405 -177.719)" fill="#2f2e41"/>
      <ellipse id="Ellipse_52" data-name="Ellipse 52" cx="25.008" cy="25.008" rx="25.008" ry="25.008" transform="translate(6.189 32.136)" fill="#ffb8b8"/>
      <path id="Path_113" data-name="Path 113" d="M527.728,241.527c2.444-11.016-1.089-23.357-8.792-30.711a28.2,28.2,0,0,0-29.448-5.708c-.629.254-1.258.532-1.875.822l-.287.135v.042c-.056.039-.111.079-.167.12a.958.958,0,0,1-.413.228,15.417,15.417,0,0,0-11.634,4.85c-3.876,4.206-5.7,11-5.142,19.137l.018.254.217.135a85.468,85.468,0,0,0,9.118,5.027c10.979,5.162,21,6.119,30.634,2.92l.177-.059,4.043-6.776c.83,4.673.387,20.175,5.149,21.015l8.3-10.965Z" transform="translate(-469.871 -177.719)" fill="#2f2e41"/>
      <path id="Path_114" data-name="Path 114" d="M452.373,263.3c-8.51-4.392,2.435-20.334.236-29.655s-18.037-12.319-19.046-21.842-3.382-19.346-9.667-26.573c-4.016-4.618-9.933-8.027-16.025-7.448a14.409,14.409,0,0,0-12.628,17.792c-1.735-2.458-6.223-1.925-7.335.871-.988,2.485,1.194,5.5,3.763,5.716,3.36,4.15,7.209,8.554,12.473,9.391a5.681,5.681,0,0,0,4.841-1.117c1.239-1.189,1.335-3.567-.134-4.456,6.616,2.628,10.5,9.782,11.477,16.833s-.376,14.185-1.271,21.248-1.281,14.492,1.489,21.051c3.272,7.749,10.8,13.3,19.025,15.084s16.976.04,24.417-3.882S477.633,266.4,482.7,259.69C473.97,265.89,461.889,268.213,452.373,263.3Z" transform="translate(-341.873 -177.719)" fill="#2f2e41"/>
      <path id="Path_115" data-name="Path 115" d="M474.151,233.246c8.744,15.063-7.721,40.443,8.873,45.714l-1.367-1.367c-10.016-12.32,10.919-38.4.9-50.717a30.1,30.1,0,0,1-3.98-5.916" transform="translate(-431.008 -177.719)" fill="#2f2e41"/>
      <path id="Path_116" data-name="Path 116" d="M511.613,241.3s-7.408-27.652-39.163-34.034c-.036-.012-.155-.06-.31-.131-.1-.06-.215-.119-.334-.179.358-.2.7-.382,1.062-.561a.012.012,0,0,0,.012-.012c.31-.286.62-.573.942-.847l.907.036S506.591,200.525,511.613,241.3Z" transform="translate(-454.924 -177.719)" fill="#fd6584"/>
    </g>
  </g>
</svg>
