<svg
      xmlns="http://www.w3.org/2000/svg"
      width="486.05"
      height="350"
      viewBox="0 0 486.05 548.5"
    >
      <g
        id="Group_619"
        data-name="Group 619"
        transform="translate(-30.64 74.679)"
      >
        <path
          id="Path_6434"
          data-name="Path 6434"
          d="M420.736,275.668c-.79-.79-7.113-17.387-7.113-17.387l-15.016-.79-6.871,16.2,29,1.979Z"
          transform="translate(-127.7 -109.023)"
          fill="#ffb6b6"
        />
        <circle
          id="Ellipse_659"
          data-name="Ellipse 659"
          cx="20.213"
          cy="20.213"
          r="20.213"
          transform="translate(251.519 115.689)"
          fill="#ffb6b6"
        />
        <path
          id="Path_6435"
          data-name="Path 6435"
          d="M432,418.781l7.113,23.71L420.147,580.007H407.306l-6.917-103.532-7.9,35.565,40.306,51.371-10.274,11.855L364.43,518.757l1.186-87.33,4.742-13.435Z"
          transform="translate(-121.975 -142.677)"
          fill="#2f2e41"
        />
        <path
          id="Path_6436"
          data-name="Path 6436"
          d="M412.424,251.166l-1.579.078s-1.412-12.591-2.24-13.341-2.329.906-2.329.906-6.509-3.636-6.7-7.582-.35-7.1-2.718-6.988-15.632,3.935-18.789,4.091-8.166-5.137-2.874-10.145,9.951-6.82,10.7-7.649,5.692-4.237,10.008-1.284a17.979,17.979,0,0,0,9.842,2.68s10.378,1.862,9.033,6.676,3.857,14.053,1.723,18.906-4.075,13.652-4.075,13.652Z"
          transform="translate(-123.746 -98.66)"
          fill="#2f2e41"
        />
        <path
          id="Path_6437"
          data-name="Path 6437"
          d="M415.689,619.991l14.226,1.581,1.581,26.08s-.79,12.645-14.226,11.064-9.484-14.226-9.484-14.226Z"
          transform="translate(-130.952 -185.032)"
          fill="#2f2e41"
        />
        <path
          id="Path_6438"
          data-name="Path 6438"
          d="M438.946,595.989s10.274-4.742,11.855.79l3.161,11.064s0,11.065.79,11.855,15.806,21.339,2.371,32.4c0,0-7.113.79-11.064-10.274S430.252,619.7,430.252,619.7s-2.3-5.532,1.618-5.137,9.446-9.089,7.866-12.25A10.03,10.03,0,0,1,438.946,595.989Z"
          transform="translate(-135.636 -179.603)"
          fill="#2f2e41"
        />
        <path
          id="Path_6439"
          data-name="Path 6439"
          d="M275.38,445.5c-3.677-1.549-4.685-7.487-2.25-13.267a15.689,15.689,0,0,1,4.325-6.017l2.84-6.515-.1-.068,8.167-32.547a25,25,0,0,1,14.307-17.006c4.271-1.816,8.324-2.145,9.5,2.207,1.956,7.222-10.782,30.484-18.462,43.573l-5.983,14.682a15.691,15.691,0,0,1-1.282,7.3c-2.433,5.778-7.386,9.206-11.063,7.658h0Z"
          transform="translate(-102.552 -132.365)"
          fill="#ffb6b6"
        />
        <path
          id="Path_6440"
          data-name="Path 6440"
          d="M386.349,274.491l26.08.79,25.29,11.064-3.952,65.6s4.742,15.016,2.371,17.387,0,13-1.581,13.218,0,11.65,0,11.65-22.129-7.48-41.1-2.738-25.29-3.161-25.29-3.161-4.742-18.968-4.742-22.919V284.572l22.919-10.081Z"
          transform="translate(-121.765 -112.588)"
          fill="#21abda"
        />
        <path
          id="Path_6441"
          data-name="Path 6441"
          d="M352.051,286.825s-7.376-1.7-12.629,6.4-7,7.442-12.661,16.522c0,0-32.4,45.838-30.822,50.58l-7.508,12.25L307.4,382.849s6.718-6.718,6.718-13.04,18.968-23.71,18.968-23.71,16.6-21.339,17.387-29.242S352.051,286.825,352.051,286.825Z"
          transform="translate(-106.039 -115.043)"
          fill="#21abda"
        />
        <g
          id="Group_617"
          data-name="Group 617"
          transform="translate(374.113 180.395)"
        >
          <g
            id="Group_616"
            data-name="Group 616"
            transform="translate(34.091 31.028)"
          >
            <path
              id="Path_6444"
              data-name="Path 6444"
              d="M577.1,547.514h3.309l9.43-9.43.463-4a42.386,42.386,0,0,0-68.955,20.68,5.13,5.13,0,0,1,3.309-.2l18.86-3.11s.96-1.589,1.456-1.489a23.526,23.526,0,0,1,32.194-2.448Z"
              transform="translate(-508.261 -523.472)"
              fill="#ea4335"
            />
            <path
              id="Path_6445"
              data-name="Path 6445"
              d="M604.3,555.044A42.482,42.482,0,0,0,591.5,534.4l-13.236,13.235a23.526,23.526,0,0,1,8.637,18.662v2.349a11.779,11.779,0,0,1,0,23.558H563.341l-2.35,2.383v14.129l2.35,2.349H586.9a30.639,30.639,0,0,0,17.4-56.018h0Z"
              transform="translate(-509.292 -523.756)"
              fill="#4285f4"
            />
            <path
              id="Path_6446"
              data-name="Path 6446"
              d="M538.687,612.442h23.559v-18.86H538.687a11.705,11.705,0,0,1-4.864-1.059l-3.309,1.026-9.5,9.429-.827,3.309a30.474,30.474,0,0,0,18.5,6.154Z"
              transform="translate(-508.23 -525.268)"
              fill="#34a853"
            />
            <path
              id="Path_6447"
              data-name="Path 6447"
              d="M538.368,550.16a30.639,30.639,0,0,0-18.5,54.926l13.666-13.665a11.779,11.779,0,1,1,15.585-15.584l13.665-13.666a30.606,30.606,0,0,0-24.419-12.011Z"
              transform="translate(-507.911 -524.166)"
              fill="#fbbc05"
            />
          </g>
        </g>
        <g
          id="Group_618"
          data-name="Group 618"
          transform="translate(301.962 173.218)"
        >
          <path
            id="Path_6448"
            data-name="Path 6448"
            d="M474.429,466.333c3.984-.209,6.948-5.453,6.62-11.716a15.693,15.693,0,0,0-2.027-7.128l-.461-7.092.119-.03,3.364-33.387a25,25,0,0,0-7.686-20.852c-3.4-3.158-7.1-4.843-9.688-1.149-4.291,6.129-.2,32.334,2.578,47.252l.645,15.841a15.694,15.694,0,0,0-1.272,7.3c.327,6.261,3.823,11.167,7.807,10.958Z"
            transform="translate(-444.565 -308.532)"
            fill="#ffb6b6"
          />
          <path
            id="Path_6449"
            data-name="Path 6449"
            d="M448.722,288.807s11.481.781,14,10.093,5.5,10.385,2.008,20.049c0,0,14.923,54.115,11.827,58.039l2.9,14.071-21.329,3.227s-4.039-8.6-1.893-14.546-9.8-28.74-9.8-28.74-8.369-25.7-6.431-33.407,8.706-28.786,8.706-28.786h0Z"
            transform="translate(-439.725 -288.807)"
            fill="#21abda"
          />
        </g>
        <g
          id="Group_637"
          data-name="Group 637"
          transform="translate(372.348 -20.137)"
        >
          <path
            id="Path_6494"
            data-name="Path 6494"
            d="M704.136,144.334l37.456-13.345L780.056,144.1l-6.228,49.556L741.592,211.5,709.86,193.889Z"
            transform="translate(-704.136 -130.988)"
            fill="#e23237"
          />
          <path
            id="Path_6495"
            data-name="Path 6495"
            d="M808.653,144.1l-38.464-13.108v80.516l32.236-17.823,6.228-49.585Z"
            transform="translate(-732.734 -130.989)"
            fill="#b52e31"
          />
          <path
            id="Path_6496"
            data-name="Path 6496"
            d="M752.474,147.568,729.135,199.5l8.719-.148,4.686-11.714h20.937l5.131,11.863,8.333.148Zm.06,16.637,7.888,16.489H745.594l6.94-16.489Z"
            transform="translate(-714.959 -138.167)"
            fill="#fff"
          />
        </g>
        <g
          id="Group_638"
          data-name="Group 638"
          transform="translate(30.64 120.251)"
        >
          <path
            id="Path_6595"
            data-name="Path 6595"
            d="M245.236,410.863l-38.154-10.58-8.5-95.363h93.426l-8.51,95.349Z"
            transform="translate(-198.58 -278.993)"
            fill="#264de4"
          />
          <path
            id="Path_6596"
            data-name="Path 6596"
            d="M331.049,403.359l7.273-81.479H300.14v90.031Z"
            transform="translate(-253.42 -288.151)"
            fill="#2965f1"
          />
          <path
            id="Path_6597"
            data-name="Path 6597"
            d="M238.5,370.943l1.049,11.694h26.175V370.943Zm-2.107-23.673,1.063,11.694H265.72V347.27H236.37Zm29.327,54.048h-.051L252.641,397.8l-.833-9.329H240.046l1.638,18.364,23.958,6.666h.055Z"
            transform="translate(-218.986 -301.861)"
            fill="#ebebeb"
          />
          <path
            id="Path_6598"
            data-name="Path 6598"
            d="M246.38,248.56h14.164v5.925H252.3v5.925h8.244v5.925H246.38Zm17.021,0h14.164v5.152H269.3v1.03h8.244v11.85H263.378v-5.41h8.244v-1.03h-8.244V248.56Zm17.021,0h14.164v5.152H286.3v1.03h8.244v11.85H280.376v-5.41h8.244v-1.03h-8.244V248.56Z"
            transform="translate(-224.391 -248.56)"
          />
          <path
            id="Path_6599"
            data-name="Path 6599"
            d="M327.206,370.943l2.112-23.673H300v11.694h16.483l-1.062,11.961H300v11.694h14.4l-1.38,15.181L300,401.327v12.168l23.976-6.647.175-1.978,2.76-30.794.285-3.142Z"
            transform="translate(-253.345 -301.861)"
            fill="#fff"
          />
        </g>
        <g
          id="Group_639"
          data-name="Group 639"
          transform="translate(46.642 313.506)"
        >
          <path
            id="Path_6561"
            data-name="Path 6561"
            d="M585,276.09H752.558V436.4H585Z"
            transform="translate(-585 -276.09)"
            fill="#f7df1e"
          />
          <path
            id="Path_6562"
            data-name="Path 6562"
            d="M654.21,450.1l10.945-6.625c2.114,3.744,4.032,6.912,8.641,6.912,4.418,0,7.2-1.728,7.2-8.445v-45.7h13.439v45.883c0,13.918-8.152,20.254-20.064,20.254-10.75,0-16.989-5.57-20.157-12.287m47.519-1.44,10.94-6.336c2.88,4.706,6.625,8.151,13.249,8.151,5.57,0,9.119-2.782,9.119-6.625,0-4.608-3.647-6.239-9.782-8.929l-3.359-1.44c-9.695-4.125-16.129-9.309-16.129-20.254,0-10.081,7.679-17.76,19.678-17.76,8.543,0,14.673,2.978,19.1,10.749l-10.461,6.723c-2.3-4.13-4.8-5.761-8.641-5.761-3.935,0-6.434,2.495-6.434,5.761,0,4.032,2.494,5.663,8.255,8.152l3.359,1.44c11.412,4.891,17.858,9.885,17.858,21.118,0,12.1-9.505,18.721-22.281,18.721-12.5,0-20.542-5.978-24.455-13.727"
            transform="translate(-587.626 -308.199)"
          />
        </g>
        <g
          id="Group_640"
          data-name="Group 640"
          transform="translate(108.688 -13.727)"
        >
          <path
            id="Path_6587"
            data-name="Path 6587"
            d="M971.933,337.49,965.218,412.7l-30.183,8.372-30.1-8.372L898.23,337.49Z"
            transform="translate(-898.23 -317.045)"
            fill="#e44d26"
          />
          <path
            id="Path_6588"
            data-name="Path 6588"
            d="M981.86,422.487l24.389-6.759,5.728-64.278H981.86Z"
            transform="translate(-945.011 -324.854)"
            fill="#f16529"
          />
          <path
            id="Path_6589"
            data-name="Path 6589"
            d="M939.441,381.617h13.051V372.39H929.36l.22,2.476,2.269,25.424H952.5v-9.227h-12.21Zm2.1,23.287h-9.253l1.291,14.488,18.876,5.261h.044v-9.628h-.04l-10.276-2.776Z"
            transform="translate(-915.643 -336.567)"
            fill="#ebebeb"
          />
          <path
            id="Path_6590"
            data-name="Path 6590"
            d="M913.8,291.09h4.688v4.631h4.287V291.09h4.688v14.029h-4.688v-4.7h-4.287v4.7H913.8Zm19.828,4.653H929.5V291.09h12.946v4.653h-4.129v9.376h-4.684v-9.376h0ZM944.5,291.09h4.891l3.01,4.931,3.005-4.931H960.3v14.029h-4.671v-6.953l-3.225,4.988h-.08l-3.23-4.988v6.953H944.5Zm18.127,0h4.689v9.39h6.609v4.635H962.643V291.09Z"
            transform="translate(-906.939 -291.09)"
          />
          <path
            id="Path_6591"
            data-name="Path 6591"
            d="M981.79,400.285h11.359l-1.07,11.967-10.289,2.776v9.619l18.916-5.243.136-1.56,2.168-24.291.225-2.476H981.79V400.3Zm0-18.7v.022h22.287l.185-2.075.441-4.679.22-2.476H981.79v9.2Z"
            transform="translate(-944.972 -336.562)"
            fill="#fff"
          />
        </g>
        <g
          id="Group_641"
          data-name="Group 641"
          transform="translate(390.882 76.956)"
        >
          <path
            id="Path_6497"
            data-name="Path 6497"
            d="M770.2,431.336c-.028,8.819,8.557,17.078,22.119,21.762-2.754,13.64-.563,24.647,6.855,28.957,7.626,4.43,19.017,1.416,29.849-7.992,10.5,9.095,21.132,12.695,28.571,8.419,7.646-4.394,10-16.134,7.263-30.217,14.155-4.63,22.087-11.625,22.115-20.56.027-8.614-8.576-16.093-21.955-20.747,3.046-14.646.538-25.388-7.188-29.876-7.448-4.327-18.226-.61-28.94,8.655-11.085-9.9-21.734-12.951-29.481-8.5-7.469,4.292-9.631,15.486-6.956,29.4C779.319,415.164,770.224,422.756,770.2,431.336Z"
            transform="translate(-770.198 -379.238)"
            fill="#fff"
          />
          <path
            id="Path_6498"
            data-name="Path 6498"
            d="M864.239,417.5q-1.653-.573-3.335-1.063.283-1.133.523-2.275c2.566-12.259.945-22.146-4.687-25.417-5.4-3.137-14.258.088-23.218,7.836q-1.324,1.148-2.59,2.361-.842-.812-1.713-1.593c-9.339-8.345-18.715-11.878-24.362-8.633-5.414,3.112-7.045,12.4-4.806,24.03q.334,1.728.755,3.437c-1.329.373-2.613.771-3.842,1.195-10.991,3.793-18.022,9.77-18.042,15.993-.02,6.427,7.486,12.9,18.91,16.842q1.389.478,2.8.885-.465,1.838-.827,3.7c-2.2,11.416-.54,20.492,4.841,23.619,5.557,3.228,14.912-.042,24.037-7.967q1.082-.94,2.17-1.988,1.361,1.322,2.8,2.567c8.79,7.612,17.485,10.7,22.881,7.6,5.573-3.2,7.411-12.941,5.1-24.8q-.264-1.359-.613-2.774.986-.287,1.93-.6c11.9-3.9,19.657-10.245,19.677-16.758.019-6.245-7.2-12.308-18.387-16.2Z"
            transform="translate(-772.273 -381.207)"
            fill="#53c1de"
          />
          <path
            id="Path_6499"
            data-name="Path 6499"
            d="M862.951,447.623c-.567.186-1.15.365-1.744.539A103.969,103.969,0,0,0,856,435.008a103.909,103.909,0,0,0,5.088-12.93q1.59.466,3.08.983c9.586,3.333,15.425,8.237,15.413,12-.013,4.009-6.351,9.194-16.627,12.563Zm-4.286,8.426a37.515,37.515,0,0,1,.455,13.689c-.628,3.327-1.877,5.543-3.416,6.427-3.274,1.881-10.256-.6-17.772-7.109q-1.293-1.119-2.6-2.386a104.086,104.086,0,0,0,8.727-11.01,103.406,103.406,0,0,0,14.052-2.12q.313,1.281.553,2.511ZM815.53,475.711c-3.2,1.118-5.74,1.142-7.274.251-3.266-1.9-4.6-9.185-2.716-18.948q.336-1.731.768-3.441a104.183,104.183,0,0,0,13.969,2.067,107.808,107.808,0,0,0,8.867,11.027q-.968.931-1.981,1.813a37.518,37.518,0,0,1-11.632,7.231ZM800.66,447.4a37.535,37.535,0,0,1-12.075-6.464c-2.565-2.211-3.857-4.4-3.851-6.177.012-3.776,5.657-8.575,15.057-11.819q1.77-.608,3.573-1.112a106.275,106.275,0,0,0,5.013,13.113,107.864,107.864,0,0,0-5.159,13.267Q801.93,447.838,800.66,447.4Zm5.122-34.117c-1.918-9.967-.6-17.476,2.663-19.352,3.476-2,11.139.891,19.2,8.1.515.461,1.033.943,1.551,1.442a106.173,106.173,0,0,0-8.868,10.9,108.267,108.267,0,0,0-13.845,2.107q-.391-1.589-.7-3.2Zm44.7,11.187q-1.512-2.632-3.137-5.2c3.308.428,6.476.994,9.451,1.683a94.475,94.475,0,0,1-3.347,8.919Q852.018,427.145,850.481,424.472Zm-18.186-17.826a94.673,94.673,0,0,1,6.08,7.387q-6.124-.309-12.257-.042C828.141,411.34,830.213,408.878,832.295,406.645Zm-18.416,17.74q-1.534,2.642-2.944,5.354c-1.28-3.064-2.375-6.076-3.267-8.984,2.961-.653,6.118-1.184,9.407-1.584Q815.416,421.741,813.879,424.386Zm3.19,26.484a94.339,94.339,0,0,1-9.552-1.567c.925-2.954,2.063-6.023,3.39-9.145q1.4,2.722,2.923,5.375,1.556,2.707,3.238,5.336Zm15.168,12.618c-2.093-2.272-4.179-4.785-6.216-7.487q2.978.127,6.067.137,3.171.01,6.26-.119a94.189,94.189,0,0,1-6.112,7.47Zm21.219-23.355a94.148,94.148,0,0,1,3.454,9.134,94.009,94.009,0,0,1-9.679,1.618q1.653-2.6,3.2-5.267Q852.005,442.911,853.457,440.134Zm-6.856,3.26q-2.369,4.086-5,8.012c-3.077.21-6.257.313-9.5.3s-6.366-.121-9.388-.326q-2.673-3.931-5.043-8.056-2.357-4.1-4.4-8.37,2.061-4.255,4.437-8.346h0q2.374-4.089,5.054-7.989c3.085-.223,6.247-.335,9.444-.325s6.377.143,9.459.388q2.627,3.908,4.972,7.994t4.444,8.335q-2.091,4.269-4.483,8.38Zm9.3-49.443c3.466,2.014,4.791,10.094,2.576,20.679q-.218,1.034-.473,2.06a106.114,106.114,0,0,0-13.859-2.234,104.078,104.078,0,0,0-8.732-10.968q1.168-1.12,2.391-2.18C845.478,394.668,852.642,392.06,855.9,393.951Z"
            transform="translate(-773.655 -382.585)"
            fill="#fff"
          />
          <path
            id="Path_6500"
            data-name="Path 6500"
            d="M844.091,435.738a9.261,9.261,0,1,1-9.29,9.231,9.261,9.261,0,0,1,9.29-9.231"
            transform="translate(-785.56 -392.673)"
            fill="#53c1de"
          />
        </g>
        <g
          id="Group_642"
          data-name="Group 642"
          transform="translate(183.248 -74.679)"
        >
          <path
            id="Path_6489"
            data-name="Path 6489"
            d="M505.606,141.7l8.108.045s-15.074,20.426-16.3,22.091a9.492,9.492,0,0,0-1.315,1.841,41.082,41.082,0,0,0-1.578,5.786l-7.418.037a30.519,30.519,0,0,0,1.107-6.349c-.042-1.927-1.026-3.852-1.578-5.786-.558-1.957-1.315-5.786-1.315-5.786h7.627l1.052,4.208L505.605,141.7"
            transform="translate(-320.613 -138.459)"
            fill="#21609b"
          />
          <path
            id="Path_6490"
            data-name="Path 6490"
            d="M456.7,145.15c1.5.9,2.415,5.878,2.415,5.878s-7.829.115-12.09.115h-3.682L438.87,170.6h-6.837s4.255-21.149,5.26-24.983c.326-1.242,2.23-1.028,5.446-1.028h5.136c3.316,0,7.193-.424,8.823.558m-31.832,9.478a4.1,4.1,0,0,0-.723-2.7c-.8-1.233-1.538-1.52-3.642-1.586-5.941-.187-5.825,4.216-5.825,4.216Zm6.443-5.042c.871,3.141-.789,10.52-.789,10.52s-8.666-.145-13.412,0c-1.476.045-3.242-.16-3.682.526-.618.962.226,2.443.941,3.069a5.952,5.952,0,0,0,3,.875,99.39,99.39,0,0,0,11.915.126l-1.4,6.185s-11.394.572-17.094-.789a5.8,5.8,0,0,1-2.893-1.578c-.195-.21-.363-.5-.547-.744a6.919,6.919,0,0,1-.768-1.36c-1.3-3.469.153-10.114,1.578-13.675.165-.413.373-.936.592-1.381.273-.554.5-1.181.723-1.512.147-.229.329-.376.481-.592a8.848,8.848,0,0,1,.57-.723,10.838,10.838,0,0,1,1.841-1.578c2.375-1.778,6.672-3.159,11.834-2.63,1.944.2,4.879.894,6.312,2.893a8.83,8.83,0,0,1,.789,2.367Zm-31.361-5.018,6.63-.039S402.883,162.057,401,170.6h-7.627c-5.33,0-10.077.66-12.1-3.156-1.959-3.705-.089-9.8.789-13.938.621-2.93,1.928-8.918,1.928-8.918l6.869-.063s-1.941,9.323-2.749,13.978c-.289,1.667-.886,3.237-.263,4.47.592,1.173,1.42,1.257,3.944,1.315.8.019,3.419,0,3.419,0l4.734-19.724m-31.032,12.623c.694-2.466,1.707-5.141,1.578-7.364a6.322,6.322,0,0,0-3.419-5,8.761,8.761,0,0,0-8.942,2.1c-1.864,2.02-2.5,4.379-3.156,7.627-.491,2.411-.894,4.957,0,6.837,1.583,3.324,6.52,2.6,11.834,2.63.789-2.114,1.441-4.489,2.1-6.838Zm9.2-9.73c.757,5.507-2.148,11.585-4.15,16.87,2.041.184,3.829-.028,3.958.124.134.2-1.368,6.309-1.891,6.325-1.62.042-6.987.087-9.225.087-7.3,0-14.135.476-17.62-3.156a11.454,11.454,0,0,1-2.63-5.786,24.538,24.538,0,0,1,.789-8.941,27.062,27.062,0,0,1,2.63-6.838c3.069-5.357,8.408-9.333,17.357-8.415a16.667,16.667,0,0,1,5.786,1.841c.108.063.484.363.57.416A11.447,11.447,0,0,1,378.12,147.461ZM345.807,144.6c-.442,2.012-.883,4.292-1.349,6.28h-7.364c.57-2.2,1.007-4.395,1.578-6.312,2.356,0,4.547.031,7.135.031m-8.976,8.121h7.1c-.929,5.139-2.767,13.428-4.208,19.2-.9,3.611-1.5,6.246-3.945,8.152-.218.171-.344.09-.526.263a10.046,10.046,0,0,1-3.681,1.052,52.956,52.956,0,0,1-6.291-.021c.6-2.2,1.283-4.844,1.82-6.817,5.61.679,5.751-4.623,6.838-9.73.628-2.951,2.533-10.914,2.893-12.1"
            transform="translate(-287.058 -137.599)"
            fill="#21609b"
          />
          <path
            id="Path_6491"
            data-name="Path 6491"
            d="M310.122,168.436l-.152.394c-2.593,5.049-7.188,8.147-13.741,8.284a19.213,19.213,0,0,1-7.89-1.578,20.379,20.379,0,0,1-9.467-8.942c-2.712-5.252-3.2-12.558,2.437-18.014.087,0-.684,1.183-.6,1.183l-.155.5c-4.063,12.72,8.455,23.621,20.623,22.375a15.984,15.984,0,0,0,8.941-4.208"
            transform="translate(-276.916 -139.901)"
            fill="#21609b"
          />
          <path
            id="Path_6492"
            data-name="Path 6492"
            d="M305.412,162.243a11.643,11.643,0,0,0,8.153-3.419c-1.657,4.205-6.454,6.908-12.886,6.049-5.386-.721-10.517-6.141-11.045-11.571-.386-3.952.991-6.311,3.261-9.173a9.6,9.6,0,0,0-1.157,3.387c-.862,8.55,6.83,14.683,13.675,14.728"
            transform="translate(-279.569 -138.968)"
            fill="#21609b"
          />
          <path
            id="Path_6493"
            data-name="Path 6493"
            d="M315.574,151.191a9.6,9.6,0,0,1-4.426,3.411,8.432,8.432,0,0,1-9.468-3.837,11.842,11.842,0,0,1-.76-1.709c-.623-2.12-.337-5.326,1.523-6.985a8.732,8.732,0,0,0-.347,4.6,10.224,10.224,0,0,0,1.268,2.769A7.283,7.283,0,0,0,306.257,152a7.683,7.683,0,0,0,1.454.7c1.207.355,3.756,1.291,7.864-1.5"
            transform="translate(-281.887 -138.536)"
            fill="#21609b"
          />
        </g>
        <g
          id="Group_614"
          data-name="Group 614"
          transform="translate(305.521 318.213)"
        >
          <g id="Group_611" data-name="Group 611">
            <path
              id="Path_6429"
              data-name="Path 6429"
              d="M34.375,206.944h108.8a33.375,33.375,0,0,1,33.375,33.375V327.6a33.375,33.375,0,0,1-33.375,33.375H34.375A33.375,33.375,0,0,1,1,327.6V240.319a33.375,33.375,0,0,1,33.375-33.375Z"
              transform="translate(-0.21 -206.154)"
              fill="#fff"
            />
            <path
              id="Path_6430"
              data-name="Path 6430"
              d="M0,327.387V240.109a34.2,34.2,0,0,1,34.165-34.165h108.8a34.2,34.2,0,0,1,34.165,34.165v87.277a34.2,34.2,0,0,1-34.165,34.165H34.165A34.2,34.2,0,0,1,0,327.387ZM34.165,207.525A32.622,32.622,0,0,0,1.581,240.11v87.277a32.621,32.621,0,0,0,32.585,32.584h108.8a32.621,32.621,0,0,0,32.585-32.584V240.11a32.622,32.622,0,0,0-32.585-32.585Z"
              transform="translate(0 -205.944)"
              fill="#3f3d56"
            />
          </g>
          <g
            id="Group_613"
            data-name="Group 613"
            transform="translate(38.77 57.51)"
          >
            <path
              id="Path_6431"
              data-name="Path 6431"
              d="M78.215,300.341a10.022,10.022,0,0,0,.364,2.948,17.726,17.726,0,0,0,1.06,2.385,1.441,1.441,0,0,1,.232.762,1.311,1.311,0,0,1-.629.994l-2.087,1.391a1.588,1.588,0,0,1-.861.3,1.524,1.524,0,0,1-.994-.464,10.246,10.246,0,0,1-1.192-1.557c-.331-.563-.662-1.192-1.027-1.954a12.236,12.236,0,0,1-9.738,4.571,9.076,9.076,0,0,1-6.625-2.385,9.345,9.345,0,0,1,.563-13.183,12.05,12.05,0,0,1,8.115-2.584,26.231,26.231,0,0,1,3.511.265c1.226.166,2.484.431,3.809.729v-2.418c0-2.517-.53-4.273-1.557-5.3-1.06-1.027-2.849-1.524-5.4-1.524a15.067,15.067,0,0,0-3.577.431,26.4,26.4,0,0,0-3.577,1.126,9.512,9.512,0,0,1-1.159.431,2.033,2.033,0,0,1-.53.1c-.464,0-.7-.331-.7-1.027v-1.623a2.1,2.1,0,0,1,.232-1.159,2.479,2.479,0,0,1,.927-.7,19.056,19.056,0,0,1,4.174-1.49,20.078,20.078,0,0,1,5.167-.629c3.942,0,6.823.894,8.678,2.683,1.822,1.789,2.749,4.5,2.749,8.148v10.732h.066Zm-13.448,5.035a10.732,10.732,0,0,0,3.412-.6,7.382,7.382,0,0,0,3.147-2.12,5.258,5.258,0,0,0,1.126-2.12,11.891,11.891,0,0,0,.331-2.882v-1.391a27.657,27.657,0,0,0-3.047-.563,24.957,24.957,0,0,0-3.114-.2,7.636,7.636,0,0,0-4.935,1.325,4.732,4.732,0,0,0,3.08,8.546h0Zm26.6,3.577a1.848,1.848,0,0,1-1.259-.331,2.7,2.7,0,0,1-.7-1.292l-7.784-25.6a5.8,5.8,0,0,1-.3-1.325.727.727,0,0,1,.795-.828H85.37a1.836,1.836,0,0,1,1.292.331,2.711,2.711,0,0,1,.662,1.292l5.565,21.928L98.056,281.2a2.324,2.324,0,0,1,.629-1.292,2.279,2.279,0,0,1,1.325-.331h2.65a1.994,1.994,0,0,1,1.325.331,2.232,2.232,0,0,1,.629,1.292l5.234,22.193,5.73-22.193a2.842,2.842,0,0,1,.663-1.292,2.161,2.161,0,0,1,1.292-.331h3.081a.736.736,0,0,1,.828.828,3.3,3.3,0,0,1-.066.53,4.709,4.709,0,0,1-.232.828l-7.983,25.6a2.541,2.541,0,0,1-.7,1.292,2.12,2.12,0,0,1-1.259.331h-2.849a1.993,1.993,0,0,1-1.325-.331,2.349,2.349,0,0,1-.629-1.325l-5.134-21.365-5.1,21.332a2.585,2.585,0,0,1-.629,1.325,2.053,2.053,0,0,1-1.325.331H91.365Zm42.564.894a21.917,21.917,0,0,1-5.1-.6,15.073,15.073,0,0,1-3.809-1.325,2.385,2.385,0,0,1-1.027-.928,2.337,2.337,0,0,1-.2-.927v-1.689c0-.7.265-1.027.762-1.027a1.875,1.875,0,0,1,.6.1c.2.066.5.2.828.331a18.018,18.018,0,0,0,3.644,1.159,19.9,19.9,0,0,0,3.942.4,8.937,8.937,0,0,0,4.836-1.093,3.567,3.567,0,0,0,1.722-3.147,3.226,3.226,0,0,0-.894-2.319,8.311,8.311,0,0,0-3.345-1.722l-4.8-1.491a10.1,10.1,0,0,1-5.3-3.378,7.893,7.893,0,0,1-1.656-4.8,7.371,7.371,0,0,1,.894-3.677A8.517,8.517,0,0,1,127.4,281a10.511,10.511,0,0,1,3.445-1.722,14.435,14.435,0,0,1,4.174-.563,16.608,16.608,0,0,1,2.219.133c.762.1,1.457.232,2.153.364.662.165,1.292.331,1.888.53a7.23,7.23,0,0,1,1.391.6,2.864,2.864,0,0,1,.994.828,1.785,1.785,0,0,1,.3,1.093v1.557c0,.7-.265,1.06-.762,1.06a3.447,3.447,0,0,1-1.259-.4,15.155,15.155,0,0,0-6.36-1.292,8.549,8.549,0,0,0-4.405.927,3.2,3.2,0,0,0-1.557,2.948,3.128,3.128,0,0,0,.994,2.352,9.9,9.9,0,0,0,3.644,1.822l4.7,1.491a10.074,10.074,0,0,1,5.134,3.18,7.5,7.5,0,0,1,1.524,4.637,8.515,8.515,0,0,1-.861,3.842,8.91,8.91,0,0,1-2.418,2.915,10.677,10.677,0,0,1-3.677,1.855,15.75,15.75,0,0,1-4.737.7Z"
              transform="translate(-50.149 -278.712)"
              fill="#252f3e"
            />
            <g
              id="Group_612"
              data-name="Group 612"
              transform="translate(0 37.129)"
            >
              <path
                id="Path_6432"
                data-name="Path 6432"
                d="M139.1,336.32c-10.9,8.049-26.731,12.322-40.345,12.322A72.988,72.988,0,0,1,49.5,329.861c-1.027-.927-.1-2.186,1.126-1.457a97.825,97.825,0,0,0,86.883,5.4c1.822-.828,3.379,1.192,1.59,2.517h0Z"
                transform="translate(-49.057 -326.215)"
                fill="#f90"
                fillRule="evenodd"
              />
              <path
                id="Path_6433"
                data-name="Path 6433"
                d="M165.106,330.63c-1.391-1.789-9.208-.861-12.753-.431-1.06.132-1.226-.8-.265-1.491,6.227-4.372,16.462-3.114,17.655-1.656,1.192,1.491-.331,11.726-6.161,16.628-.894.762-1.756.364-1.358-.629,1.325-3.279,4.273-10.666,2.882-12.421Z"
                transform="translate(-70.528 -325.692)"
                fill="#f90"
                fillRule="evenodd"
              />
            </g>
          </g>
        </g>
      </g>
    </svg>
