<svg xmlns="http://www.w3.org/2000/svg" width="11.578" height="13.232" viewBox="0 0 11.578 13.232">
  <path id="Icon_awesome-trash" data-name="Icon awesome-trash" d="M11.165.827h-3.1L7.82.344A.62.62,0,0,0,7.265,0H4.311a.613.613,0,0,0-.553.344L3.515.827H.414A.414.414,0,0,0,0,1.24v.827a.414.414,0,0,0,.414.414H11.165a.414.414,0,0,0,.414-.414V1.24A.414.414,0,0,0,11.165.827ZM1.375,12.069a1.241,1.241,0,0,0,1.238,1.163H8.965A1.24,1.24,0,0,0,10.2,12.069l.548-8.761H.827Z" transform="translate(0 0)" fill="#fff"/>
</svg>
