<svg xmlns="http://www.w3.org/2000/svg" width="13.569" height="12.061" viewBox="0 0 13.569 12.061">
  <path id="Icon_awesome-lock-open" data-name="Icon awesome-lock-open" d="M9.977,0A3.6,3.6,0,0,0,6.408,3.616V5.277H1.131A1.131,1.131,0,0,0,0,6.408v4.523a1.131,1.131,0,0,0,1.131,1.131H9.423a1.131,1.131,0,0,0,1.131-1.131V6.408A1.131,1.131,0,0,0,9.423,5.277H8.292V3.6a1.7,1.7,0,1,1,3.392-.021V5.465a.564.564,0,0,0,.565.565H13a.564.564,0,0,0,.565-.565V3.581A3.585,3.585,0,0,0,9.977,0Z" transform="translate(0 0)" fill="#fff"/>
</svg>
